<?xml version="1.0" encoding="utf-8"?>
<!-- Generator: Adobe Illustrator 16.0.4, SVG Export Plug-In . SVG Version: 6.00 Build 0)  -->
<!DOCTYPE svg PUBLIC "-//W3C//DTD SVG 1.1//EN" "http://www.w3.org/Graphics/SVG/1.1/DTD/svg11.dtd">
<svg version="1.1"
	 id="svg3037" xmlns:dc="http://purl.org/dc/elements/1.1/" xmlns:cc="http://creativecommons.org/ns#" xmlns:rdf="http://www.w3.org/1999/02/22-rdf-syntax-ns#" xmlns:svg="http://www.w3.org/2000/svg" xmlns:sodipodi="http://sodipodi.sourceforge.net/DTD/sodipodi-0.dtd" xmlns:inkscape="http://www.inkscape.org/namespaces/inkscape" sodipodi:docname="camera_font_awesome.svg" inkscape:version="0.48.3.1 r9886"
	 xmlns="http://www.w3.org/2000/svg" xmlns:xlink="http://www.w3.org/1999/xlink" x="0px" y="0px" width="300px" height="200px"
	 viewBox="12.5 161.5 300 200" enable-background="new 12.5 161.5 300 200" xml:space="preserve">
<rect x="12.5" y="161.5" fill="#D6D6D6" width="300" height="200"/>
<sodipodi:namedview  inkscape:cy="896" inkscape:cx="960" inkscape:zoom="0.13169643" showgrid="false" guidetolerance="10" gridtolerance="10" objecttolerance="10" bordercolor="#666666" pagecolor="#ffffff" borderopacity="1" id="namedview3043" inkscape:current-layer="svg3037" inkscape:window-maximized="0" inkscape:window-y="25" inkscape:window-x="0" inkscape:window-height="480" inkscape:window-width="640" inkscape:pageopacity="0" inkscape:pageshadow="2">
	</sodipodi:namedview>
<g>
	<g id="g3039" transform="matrix(1,0,0,-1,15.186441,1413.0508)">
		<path id="path3041" inkscape:connector-curvature="0" fill="#C4C4C4" d="M147.637,1161.639c2.902,0,5.384-1.03,7.445-3.091
			c2.061-2.061,3.091-4.542,3.091-7.444s-1.031-5.384-3.091-7.444c-2.061-2.061-4.542-3.091-7.445-3.091
			c-2.902,0-5.383,1.03-7.444,3.091c-2.061,2.061-3.091,4.542-3.091,7.444s1.031,5.384,3.091,7.444
			C142.253,1160.608,144.735,1161.639,147.637,1161.639z M173.391,1176.857c2.585,0,4.792-0.915,6.621-2.744
			s2.744-4.036,2.744-6.621v-32.778c0-2.585-0.915-4.792-2.744-6.621s-4.036-2.744-6.621-2.744h-51.508
			c-2.585,0-4.792,0.915-6.621,2.744s-2.744,4.036-2.744,6.621v32.778c0,2.585,0.915,4.792,2.744,6.621s4.036,2.744,6.621,2.744
			h8.195l1.866,4.975c0.463,1.195,1.311,2.226,2.542,3.091c1.232,0.866,2.494,1.299,3.787,1.299h18.73
			c1.292,0,2.555-0.433,3.786-1.299c1.232-0.866,2.079-1.896,2.542-3.091l1.866-4.975H173.391z M147.637,1134.714
			c4.512,0,8.372,1.604,11.579,4.811s4.811,7.066,4.811,11.578s-1.604,8.372-4.811,11.578c-3.207,3.207-7.066,4.811-11.579,4.811
			c-4.512,0-8.371-1.604-11.578-4.811c-3.207-3.207-4.811-7.066-4.811-11.578s1.604-8.371,4.811-11.578
			S143.125,1134.714,147.637,1134.714z"/>
	</g>
	<g opacity="0.5">
		<circle fill="none" stroke="#9C9C9C" stroke-width="12.268" stroke-miterlimit="10" cx="162.5" cy="261.5" r="68"/>
		
			<line fill="none" stroke="#9C9C9C" stroke-width="12.268" stroke-miterlimit="10" x1="115.18" y1="308.469" x2="211.397" y2="212.252"/>
	</g>
</g>
</svg>
